<svg width="24" height="24" viewBox="0 0 24 24" fill="none" xmlns="http://www.w3.org/2000/svg">
<g clip-path="url(#clip0_2014_11057)">
<path d="M0.786677 6.52133C0.587588 6.52133 0.396653 6.44225 0.255876 6.30147C0.115099 6.16069 0.0360107 5.96976 0.0360107 5.77067V0.750667C0.0360107 0.551578 0.115099 0.360643 0.255876 0.219865C0.396653 0.0790879 0.587588 0 0.786677 0H5.48668C5.68577 0 5.8767 0.0790879 6.01748 0.219865C6.15826 0.360643 6.23734 0.551578 6.23734 0.750667C6.23734 0.949756 6.15826 1.14069 6.01748 1.28147C5.8767 1.42225 5.68577 1.50133 5.48668 1.50133H1.53734V5.768C1.5377 5.8668 1.51854 5.9647 1.48097 6.05609C1.4434 6.14747 1.38816 6.23054 1.31842 6.30053C1.24868 6.37052 1.16581 6.42605 1.07456 6.46394C0.983313 6.50183 0.885481 6.52133 0.786677 6.52133ZM23.964 5.77067V0.750667C23.9637 0.551686 23.8845 0.360955 23.7438 0.220255C23.6031 0.0795536 23.4123 0.000352491 23.2133 0L18.5133 0C18.3143 0 18.1233 0.0790879 17.9825 0.219865C17.8418 0.360643 17.7627 0.551578 17.7627 0.750667C17.7627 0.949756 17.8418 1.14069 17.9825 1.28147C18.1233 1.42225 18.3143 1.50133 18.5133 1.50133H22.4627V5.768C22.4627 5.96709 22.5418 6.15802 22.6825 6.2988C22.8233 6.43958 23.0143 6.51867 23.2133 6.51867C23.4124 6.51867 23.6034 6.43958 23.7441 6.2988C23.8849 6.15802 23.964 5.96709 23.964 5.768V5.77067ZM6.23734 23.2493C6.23734 23.0502 6.15826 22.8593 6.01748 22.7185C5.8767 22.5778 5.68577 22.4987 5.48668 22.4987H1.53734V18.232C1.53734 18.0329 1.45826 17.842 1.31748 17.7012C1.1767 17.5604 0.985767 17.4813 0.786677 17.4813C0.587588 17.4813 0.396653 17.5604 0.255876 17.7012C0.115099 17.842 0.0360107 18.0329 0.0360107 18.232V23.252C0.0367163 23.4506 0.116116 23.6409 0.256817 23.7811C0.397517 23.9213 0.588049 24 0.786677 24H5.48668C5.68577 24 5.8767 23.9209 6.01748 23.7801C6.15826 23.6394 6.23734 23.4484 6.23734 23.2493ZM23.964 23.2493V18.2293C23.964 18.0302 23.8849 17.8393 23.7441 17.6985C23.6034 17.5578 23.4124 17.4787 23.2133 17.4787C23.0143 17.4787 22.8233 17.5578 22.6825 17.6985C22.5418 17.8393 22.4627 18.0302 22.4627 18.2293V22.496H18.5133C18.3143 22.496 18.1233 22.5751 17.9825 22.7159C17.8418 22.8566 17.7627 23.0476 17.7627 23.2467C17.7627 23.4458 17.8418 23.6367 17.9825 23.7775C18.1233 23.9182 18.3143 23.9973 18.5133 23.9973H23.2133C23.4119 23.997 23.6022 23.9182 23.7428 23.778C23.8834 23.6379 23.963 23.4479 23.964 23.2493Z" fill="#50E6FF"/>
<path d="M11.6867 21.4667C16.9547 21.4667 21.2253 17.1961 21.2253 11.9281C21.2253 6.66001 16.9547 2.3894 11.6867 2.3894C6.41862 2.3894 2.14801 6.66001 2.14801 11.9281C2.14801 17.1961 6.41862 21.4667 11.6867 21.4667Z" fill="#0078D4"/>
<path d="M11.6867 20.3533C16.239 20.3533 19.9293 16.6629 19.9293 12.1106C19.9293 7.55829 16.239 3.86792 11.6867 3.86792C7.13437 3.86792 3.444 7.55829 3.444 12.1106C3.444 16.6629 7.13437 20.3533 11.6867 20.3533Z" fill="url(#paint0_linear_2014_11057)"/>
<path d="M11.6867 18.7026C15.4032 18.7026 18.416 15.6897 18.416 11.9732C18.416 8.25672 15.4032 5.2439 11.6867 5.2439C7.97016 5.2439 4.95734 8.25672 4.95734 11.9732C4.95734 15.6897 7.97016 18.7026 11.6867 18.7026Z" fill="#5EA0EF"/>
<path d="M11.6867 16.4921C14.1572 16.4921 16.16 14.4893 16.16 12.0187C16.16 9.54819 14.1572 7.54541 11.6867 7.54541C9.21613 7.54541 7.21335 9.54819 7.21335 12.0187C7.21335 14.4893 9.21613 16.4921 11.6867 16.4921Z" fill="#005BA1"/>
<path d="M10.2147 11.7146C10.9569 11.7146 11.5587 11.1129 11.5587 10.3706C11.5587 9.62834 10.9569 9.02661 10.2147 9.02661C9.4724 9.02661 8.87067 9.62834 8.87067 10.3706C8.87067 11.1129 9.4724 11.7146 10.2147 11.7146Z" fill="white"/>
<path d="M11.6867 12.66C12.0158 12.66 12.2827 12.3932 12.2827 12.064C12.2827 11.7349 12.0158 11.468 11.6867 11.468C11.3575 11.468 11.0907 11.7349 11.0907 12.064C11.0907 12.3932 11.3575 12.66 11.6867 12.66Z" fill="white"/>
</g>
<defs>
<linearGradient id="paint0_linear_2014_11057" x1="11.6867" y1="20.3533" x2="11.6867" y2="3.86792" gradientUnits="userSpaceOnUse">
<stop stop-color="#5EA0EF"/>
<stop offset="1" stop-color="#0078D4"/>
</linearGradient>
<clipPath id="clip0_2014_11057">
<rect width="24" height="24" fill="white"/>
</clipPath>
</defs>
</svg>
